<svg width="71" height="39" viewBox="0 0 71 39" fill="none" xmlns="http://www.w3.org/2000/svg">
<path d="M68.1682 20.4783C67.5417 19.4904 66.9083 18.5092 66.2748 17.5258C65.4685 16.2742 64.6606 15.0234 63.8512 13.7733C63.0571 12.5507 62.2615 11.3243 61.4644 10.0941C60.8753 9.17718 60.2839 8.2656 59.6903 7.35937C58.6391 5.72723 57.4549 4.12261 55.83 2.97644C54.1079 1.79819 52.1503 1.00746 50.0923 0.658903C49.2333 0.506174 48.3642 0.417293 47.492 0.392993C45.2684 0.346079 43.0764 0.925192 41.1668 2.0641C39.3308 3.17588 37.8321 4.7507 36.2141 6.15131C36.1213 6.2465 36.0089 6.3204 35.8846 6.3679C35.7604 6.41541 35.6273 6.43538 35.4946 6.42644C35.3619 6.4175 35.2327 6.37986 35.116 6.31613C34.9993 6.2524 34.8978 6.16409 34.8187 6.05733C33.5357 4.54439 32.1518 3.07731 30.4879 1.96094C28.8053 0.886209 26.8852 0.238553 24.8948 0.07436L24.7571 0.060606C22.6793 -0.113542 20.5871 0.0883639 18.5811 0.656611C18.2735 0.741427 17.9683 0.839997 17.6631 0.950028C15.7008 1.6744 14.1631 3.02229 12.8067 4.58107C11.5077 6.07796 10.4198 7.7399 9.29066 9.36515L4.43889 16.3453C2.84841 18.6307 1.2235 20.8726 0.463838 23.6074C0.00482525 25.2647 -0.1696 27.0459 0.199906 28.7307C0.707115 31.0506 1.82252 33.2489 3.57365 34.8764C5.43265 36.6094 7.97329 37.4599 10.4749 37.6662C13.2428 37.8954 16.3067 37.155 18.4548 35.3326C18.9001 34.9544 19.545 34.473 19.6483 33.8609C19.763 33.1732 19.5358 32.4328 19.3224 31.7978C18.5421 29.4574 18.4044 29.0081 18.4044 29.0081C18.4044 29.0081 18.0922 27.9536 17.2568 28.8132C16.2378 29.8563 15.5172 31.0574 14.1768 31.7451C13.1993 32.2397 12.1047 32.457 11.0121 32.3733C9.91949 32.2897 8.8708 31.9083 7.98017 31.2706C5.3179 29.3474 5.09298 26.0785 6.37363 23.275C6.68576 22.5873 7.06215 21.9363 7.43395 21.2852C8.37493 19.6669 9.44213 18.1264 10.4818 16.5722C12.1113 14.1332 13.6949 11.6116 15.4896 9.29638C16.7129 7.72385 18.1542 6.15819 20.0522 5.42006C21.1201 5.01353 22.2623 4.83844 23.403 4.90642C24.5438 4.9744 25.657 5.28388 26.6689 5.81434C29.0695 7.07054 30.8757 9.08778 32.4456 11.2517C33.6298 12.8816 34.8485 14.4816 36.0787 16.084C38.6568 19.446 41.2349 22.8081 43.813 26.1702C47.8753 31.4655 52.0041 39.3671 59.8785 38.4296C61.944 38.182 63.9224 37.359 65.701 36.2885C65.7883 36.2358 65.8755 36.1877 65.9558 36.1303C71.9 31.8185 70.4909 24.1163 68.1682 20.4783ZM64.4388 30.0649C63.8872 30.9853 63.1015 31.7434 62.1614 32.262C61.2213 32.7806 60.1604 33.0412 59.0867 33.0174C55.0611 32.9257 52.7638 29.3749 50.5949 26.4842C49.3854 24.8613 48.1645 23.2406 46.9366 21.6383L46.17 20.6273L45.392 19.6141L44.6278 18.6239L43.8888 17.6473C43.6547 17.3417 43.419 17.036 43.1819 16.7304L42.514 15.8616L41.8943 15.0547L41.3298 14.3212L40.8317 13.6701C40.6871 13.4868 40.5448 13.3011 40.4026 13.1154L40.056 12.6569L39.799 12.3223L39.5694 12.0449C39.3937 11.845 39.2525 11.6172 39.1517 11.3709C38.9429 10.7979 39.2275 10.3852 39.6291 9.99554C41.8163 7.8866 44.2996 5.26877 47.5517 5.26877C49.2569 5.26877 51.0677 5.66305 52.4861 6.64416C53.7598 7.52442 54.671 9.00297 55.5385 10.2615C56.4703 11.6116 57.3401 13.0122 58.2582 14.3647C59.9978 16.939 61.7008 19.5431 63.2614 22.2274C64.643 24.5931 65.9925 27.4035 64.4479 30.0649H64.4388Z" fill="black"/>
<path d="M43.0398 33.6088C40.7195 36.057 38.1192 37.8931 34.6513 38.127C32.131 38.2843 29.6284 37.6126 27.5266 36.2146C25.4247 34.8165 23.8393 32.7692 23.013 30.3858C22.1569 27.909 22.2237 25.2068 23.2012 22.7753C24.2524 20.2033 26.1022 17.9774 27.8648 15.8616V15.8501L28.3238 15.2954C29.0261 14.4381 29.554 15.2771 29.554 15.2771C29.554 15.2771 31.0779 17.0123 31.7618 17.8903C32.4044 18.7155 31.8399 19.4468 31.2248 20.068C28.8402 22.4795 26.6346 26.3536 28.5533 29.6706C29.9694 32.089 33.1802 33.1228 35.808 32.3182C37.4765 31.7979 38.3716 30.6861 39.4801 29.4436C40.3018 28.5267 40.8572 29.5216 40.8572 29.5216C40.8572 29.5216 41.9703 30.7503 42.8493 31.8139C43.7283 32.8775 43.0398 33.6088 43.0398 33.6088Z" fill="black"/>
</svg>
