<svg width="35" height="43" viewBox="0 0 35 43" fill="none" xmlns="http://www.w3.org/2000/svg">
<path d="M32.6816 24.6889L32.6811 24.6881C32.316 24.0055 31.8619 23.3648 31.3286 22.779C31.0642 22.4867 30.7789 22.21 30.4744 21.9508C30.324 21.8197 30.1709 21.696 30.0165 21.5741L29.9458 21.5185H29.94C29.8038 21.4161 29.6641 21.3167 29.5263 21.2207L29.4595 21.1744H29.4537C28.6948 20.667 27.8625 20.2543 26.9806 19.9474C26.9659 19.9421 26.9513 19.9375 26.9362 19.934C26.8173 19.8909 26.6993 19.8537 26.5875 19.8184L26.5809 19.8163L26.5784 19.8155C26.4399 19.7733 26.3017 19.7343 26.1632 19.6984L13.294 16.1049L13.2598 16.0953H13.2241H13.2205H13.1799L8.97574 14.9215L8.98286 14.9024L8.71337 14.8271L5.90141 14.0417V9.6617H23.1812C24.0029 9.66165 24.8115 9.84113 25.5358 10.1833L25.6468 9.95183L25.5358 10.1833C26.2598 10.5254 26.8766 11.0192 27.334 11.6193C27.7914 12.2193 28.0757 12.9076 28.1653 13.6242C28.2546 14.3407 28.1466 15.0664 27.8499 15.739L27.8282 15.7881V15.8418V15.845V16.0391L28.0162 16.0918L32.7898 17.4269L32.8241 17.4365H32.8597H32.8635H33.0393L33.1036 17.2739C33.6236 15.9623 33.8125 14.5634 33.6574 13.1775C33.5025 11.7917 33.0068 10.4552 32.2078 9.26333L32.1311 9.14895H32.1286C31.2955 7.94458 30.1709 6.92495 28.8388 6.16468C27.5325 5.41905 26.0602 4.94175 24.5275 4.7648V0.528106V0.271729H24.2692H19.2747H19.0163V0.528106V4.68803H14.2244V0.528106V0.271729H13.9662H8.97158H8.7133V0.528106V4.68803H0.64855H0.390259V4.9444V17.5147V17.7088L0.578555 17.7615L5.57312 19.1571H5.57315L16.2864 22.1491L16.2865 22.1491L24.6553 24.4858L24.6578 24.4874L24.6971 24.498C24.8058 24.5274 24.9111 24.5588 25.012 24.5947C25.0157 24.5964 25.0196 24.5981 25.0236 24.5997C25.0329 24.6034 25.0425 24.6066 25.0525 24.6094L25.0691 24.6154H25.0749L25.1501 24.6363L25.1484 24.6408L25.372 24.7375C26.3963 25.1801 27.2164 25.9176 27.7033 26.8236C28.1897 27.7286 28.3169 28.7519 28.0669 29.7274L28.2977 29.7856L28.0669 29.7274C27.8164 30.7036 27.201 31.5809 26.314 32.2121C25.427 32.8439 24.3223 33.1899 23.1812 33.1901H5.90141V23.5975V23.4032L5.71296 23.3506L0.718396 21.9582L0.390259 21.8667V22.205V37.9074V38.1639H0.64855H8.7133V42.3174V42.5739H8.97158H13.9662H14.2244V42.3174V38.1639H19.0163V42.3174V42.5739H19.2747H24.2692H24.5275V42.3174V38.0839C26.1094 37.8999 27.6266 37.3964 28.9625 36.6084C30.3636 35.7821 31.5261 34.6666 32.3501 33.3529C33.1743 32.0394 33.6357 30.5664 33.6935 29.0574C33.7515 27.5489 33.4038 26.0506 32.6816 24.6889Z" fill="url(#paint0_linear_601_46)" stroke="url(#paint1_linear_601_46)" stroke-width="2"/>
<defs>
<linearGradient id="paint0_linear_601_46" x1="36.0326" y1="43.7971" x2="-2.1431" y2="0.21184" gradientUnits="userSpaceOnUse">
<stop stop-color="#0118FE"/>
<stop offset="1" stop-color="#01FFFD"/>
</linearGradient>
<linearGradient id="paint1_linear_601_46" x1="36.0326" y1="43.7971" x2="-2.1431" y2="0.21184" gradientUnits="userSpaceOnUse">
<stop stop-color="#0118FE"/>
<stop offset="1" stop-color="#01FFFD"/>
</linearGradient>
</defs>
</svg>
