<svg width="230" height="61" viewBox="0 0 230 61" fill="none" xmlns="http://www.w3.org/2000/svg">
<g clip-path="url(#clip0_3_36)">
<rect width="230" height="61" fill="white"/>
<path d="M68.347 23.6012H76.7818C80.4446 23.6012 82.6629 20.9607 82.6629 18.1635C82.6629 16.8563 81.9664 15.2616 81.3216 14.5819V14.5296C82.0696 13.7976 82.6629 12.4643 82.6629 11.0787C82.6629 8.20303 80.4446 6.21617 76.7818 6.21617H68.347V23.6012ZM71.4423 13.1702V9.0396H76.7818C78.5358 9.0396 79.516 9.79774 79.516 11.0787C79.516 12.4382 78.6132 13.1702 76.9623 13.1702H71.4423ZM71.4423 20.7777V16.0459H76.9623C78.6132 16.0459 79.516 16.7779 79.516 18.1635C79.516 19.4706 78.5358 20.7777 76.7818 20.7777H71.4423ZM87.2027 5.43188V23.6012H90.0917V5.43188H87.2027ZM100.797 23.9149C104.796 23.9149 107.814 21.2483 107.814 17.3792C107.814 13.5362 104.796 10.8696 100.797 10.8696C96.7993 10.8696 93.8329 13.5362 93.8329 17.3792C93.8329 21.2483 96.7993 23.9149 100.797 23.9149ZM100.797 21.2222C98.3986 21.2222 96.7993 19.6797 96.7993 17.3792C96.7993 15.0786 98.3986 13.51 100.797 13.51C103.196 13.51 104.821 15.0786 104.821 17.3792C104.821 19.6797 103.171 21.2222 100.797 21.2222ZM117.65 23.9149C119.688 23.9149 121.571 23.0783 123.119 21.6405L121.107 19.6536C120.049 20.7516 118.862 21.2222 117.676 21.2222C115.225 21.2222 113.626 19.6536 113.626 17.3792C113.626 15.0786 115.251 13.51 117.65 13.51C118.94 13.51 120.152 14.1113 120.978 15.0263L123.041 13.0656C121.545 11.6277 119.61 10.8696 117.65 10.8696C113.652 10.8696 110.66 13.5623 110.66 17.3792C110.66 21.2222 113.626 23.9149 117.65 23.9149ZM131.624 18.5556L135.803 23.6012H139.44L133.662 16.6995L139.492 11.1572H135.416L129.715 16.5949V5.43188H126.826V23.6012H129.715V20.3595L131.624 18.5556ZM147.601 23.9149C149.638 23.9149 151.521 23.0783 153.069 21.6405L151.057 19.6536C150 20.7516 148.813 21.2222 147.626 21.2222C145.176 21.2222 143.577 19.6536 143.577 17.3792C143.577 15.0786 145.202 13.51 147.601 13.51C148.89 13.51 150.103 14.1113 150.928 15.0263L152.992 13.0656C151.496 11.6277 149.561 10.8696 147.601 10.8696C143.603 10.8696 140.61 13.5623 140.61 17.3792C140.61 21.2222 143.577 23.9149 147.601 23.9149ZM163.406 10.8696C161.936 10.8696 160.62 11.0787 159.666 11.7585V5.43188H156.777V23.6012H159.666V16.3596C159.666 14.5035 161.394 13.51 163.071 13.51C164.902 13.51 166.037 14.5296 166.037 16.255V23.6012H168.926V16.0459C168.926 12.9087 166.579 10.8696 163.406 10.8696ZM186.532 11.1572H183.643V11.9415C182.663 11.2356 181.296 10.8696 179.774 10.8696C175.957 10.8696 172.913 13.51 172.913 17.3792C172.913 21.2483 175.982 23.9149 179.697 23.9149C181.348 23.9149 182.74 23.6796 183.746 22.9215V23.6012H186.532V11.1572ZM179.852 21.2222C177.478 21.2222 175.879 19.6797 175.879 17.3792C175.879 15.0786 177.478 13.51 179.852 13.51C182.225 13.51 183.824 15.0525 183.824 17.3792C183.824 19.7059 182.225 21.2222 179.852 21.2222ZM192.917 10.1899C193.897 10.1899 194.748 9.43174 194.748 8.46446C194.748 7.49717 193.897 6.76517 192.917 6.76517C191.885 6.76517 191.086 7.49717 191.086 8.46446C191.086 9.43174 191.885 10.1899 192.917 10.1899ZM194.336 23.6012V11.1572H191.447V23.6012H194.336ZM205.977 10.8696C204.507 10.8696 203.191 11.0787 202.237 11.7585V11.1572H199.348V23.6012H202.237V16.3596C202.237 14.5035 203.965 13.51 205.642 13.51C207.473 13.51 208.608 14.5296 208.608 16.255V23.6012H211.497V16.0459C211.497 12.9087 209.15 10.8696 205.977 10.8696ZM75.0535 55.1411C79.5676 55.1411 82.405 52.9974 82.405 49.8602C82.405 45.7819 77.8393 45.1545 75.3631 44.7624C71.9582 44.2918 70.9264 43.7166 70.9264 42.4879C70.9264 40.9455 72.4225 40.0044 75.3115 40.0044C77.0913 40.0044 78.7422 40.4488 80.5736 41.4684L82.4823 39.2462C80.393 38.0698 77.7362 37.1286 75.3631 37.1286C71.8808 37.1286 67.7537 38.3574 67.7537 42.6448C67.7537 45.2591 69.3788 46.6708 74.7956 47.5858C74.873 47.6119 74.9504 47.6119 75.0278 47.6381L75.2857 47.6642C77.2203 47.9779 79.2064 48.3178 79.2064 49.9125C79.2064 51.4549 77.4782 52.2654 75.0793 52.2654C72.8868 52.2654 70.6169 51.6641 68.8371 50.4354L67.0315 52.6836C68.6307 53.8078 71.8808 55.1411 75.0535 55.1411ZM92.894 55.1411C96.8921 55.1411 99.91 52.4745 99.91 48.6054C99.91 44.7624 96.8921 42.0958 92.894 42.0958C88.8958 42.0958 85.9295 44.7624 85.9295 48.6054C85.9295 52.4745 88.8958 55.1411 92.894 55.1411ZM92.894 52.4484C90.4951 52.4484 88.8958 50.9059 88.8958 48.6054C88.8958 46.3048 90.4951 44.7362 92.894 44.7362C95.2928 44.7362 96.9179 46.3048 96.9179 48.6054C96.9179 50.9059 95.267 52.4484 92.894 52.4484ZM110.004 55.1411C112.042 55.1411 113.925 54.3045 115.473 52.8666L113.461 50.8798C112.403 51.9778 111.217 52.4484 110.03 52.4484C107.58 52.4484 105.98 50.8798 105.98 48.6054C105.98 46.3048 107.605 44.7362 110.004 44.7362C111.294 44.7362 112.506 45.3375 113.332 46.2525L115.395 44.2918C113.899 42.8539 111.965 42.0958 110.004 42.0958C106.006 42.0958 103.014 44.7885 103.014 48.6054C103.014 52.4484 105.98 55.1411 110.004 55.1411ZM121.144 41.4161C122.124 41.4161 122.976 40.6579 122.976 39.6906C122.976 38.7234 122.124 37.9914 121.144 37.9914C120.112 37.9914 119.313 38.7234 119.313 39.6906C119.313 40.6579 120.112 41.4161 121.144 41.4161ZM122.563 54.8274V42.3834H119.674V54.8274H122.563ZM139.885 47.8211C139.885 44.9192 137.77 42.0958 133.539 42.0958C129.516 42.0958 126.73 44.7362 126.73 48.5531C126.73 52.5006 129.67 55.1411 133.72 55.1411C135.784 55.1411 137.796 54.2784 139.343 52.8666L137.512 50.8798C136.351 51.9255 135.036 52.5006 133.694 52.5006C131.708 52.5006 130.264 51.4811 129.799 49.7818H139.601C139.808 48.9452 139.885 48.1609 139.885 47.8211ZM133.514 44.7101C135.474 44.7101 136.635 45.8081 136.841 47.1936H129.825C130.264 45.5989 131.605 44.7101 133.514 44.7101ZM152.53 54.3045L151.317 52.0301C150.414 52.4222 149.821 52.4484 149.254 52.4484C147.938 52.4484 147.293 51.8471 147.293 50.5922V44.9715H152.633V42.3834H147.293V38.8541H144.404V42.3834H141.799V44.9715H144.404V50.5922C144.404 53.5464 146.133 55.1411 149.279 55.1411C150.414 55.1411 151.369 54.8796 152.065 54.5136L152.53 54.3045ZM169.199 42.3834H165.974L162.209 50.9321L158.185 42.3834H154.96L160.712 54.3306L157.849 60.8402H160.816L169.199 42.3834ZM182.754 54.8274V37.4424H179.659V54.8274H182.754ZM191.703 54.8274V37.4424H188.607V54.8274H191.703ZM211.02 40.2658V37.4424H195.673V40.2658H201.786V54.8274H204.907V40.2658H211.02ZM224.151 47.1936C227.401 46.9584 229.259 44.9454 229.259 42.3311C229.259 39.4554 227.04 37.4685 223.377 37.4685H214.943V54.8535H218.012L218.038 47.2198H220.488L226.034 54.8274H229.981L224.151 47.1936ZM218.038 40.2658H223.377C225.131 40.2658 226.112 41.0239 226.112 42.3049C226.112 43.5598 225.131 44.3964 223.377 44.3964H218.038V40.2658Z" fill="#00A8FF"/>
<path d="M45.1468 34.944L45.1461 34.943C44.6398 33.9763 44.01 33.0688 43.2702 32.2392C42.9034 31.8252 42.5079 31.4334 42.0855 31.0662C41.877 30.8806 41.6645 30.7054 41.4503 30.5328L41.3525 30.454H41.3443C41.1555 30.309 40.9616 30.1682 40.7703 30.0322L40.6775 29.9666H40.6697C39.6171 29.2481 38.4628 28.6636 37.2394 28.229C37.2193 28.2213 37.1989 28.2149 37.1777 28.2099C37.0129 28.1489 36.8492 28.0962 36.6941 28.0461L36.6851 28.0432L36.6816 28.0422C36.4895 27.9823 36.2979 27.927 36.1058 27.8763L18.2561 22.7869L18.2085 22.7733H18.1591H18.1541H18.0978L12.2666 21.1109L12.2764 21.0839L11.9026 20.9773L8.00242 19.8649V13.6617H31.9696C33.1094 13.6616 34.2309 13.9158 35.2354 14.4004L35.3894 14.0726L35.2354 14.4004C36.2398 14.885 37.0953 15.5842 37.7298 16.4342C38.3639 17.2839 38.7584 18.2588 38.8827 19.2736C39.0066 20.2883 38.8569 21.3161 38.4453 22.2686L38.4152 22.3383V22.4143V22.4189V22.6938L38.676 22.7683L45.2969 24.6592L45.3445 24.6728H45.394H45.399H45.643L45.7322 24.4426C46.4533 22.585 46.7156 20.6037 46.5003 18.641C46.2853 16.6784 45.5978 14.7855 44.4897 13.0975L44.3833 12.9355H44.3798C43.2244 11.2298 41.6645 9.78572 39.817 8.709C38.005 7.65297 35.9629 6.977 33.837 6.72639V0.726132V0.363037H33.4787H26.5512H26.193V0.726132V6.61768H19.5466V0.726132V0.363037H19.1883H12.2608H11.9025V0.726132V6.61768H0.716654H0.358398V6.98078V24.7836V25.0585L0.61957 25.133L7.54708 27.1097H7.54712L22.4065 31.3471L22.4066 31.3471L34.0143 34.6564L34.0177 34.6587L34.0722 34.6738C34.223 34.7154 34.3691 34.7598 34.509 34.8107C34.5141 34.8131 34.5195 34.8155 34.5251 34.8177C34.5379 34.823 34.5513 34.8276 34.5652 34.8315L34.5883 34.84H34.5962L34.7005 34.8695L34.6982 34.876L35.0083 35.0129C36.429 35.6397 37.5665 36.6842 38.2418 37.9674C38.9167 39.2491 39.093 40.6982 38.7462 42.0798L39.0665 42.1626L38.7462 42.0798C38.3987 43.4624 37.5453 44.705 36.3151 45.5989C35.0846 46.4936 33.5524 46.9837 31.9696 46.9841H8.00242V33.3983V33.1232L7.74104 33.0488L0.81353 31.0767L0.358398 30.9471V31.4263V53.6651V54.0282H0.716654H11.9025V59.9107V60.2738H12.2608H19.1883H19.5466V59.9107V54.0282H26.193V59.9107V60.2738H26.5512H33.4787H33.837V59.9107V53.9149C36.0313 53.6542 38.1357 52.941 39.9883 51.8253C41.9318 50.655 43.5443 49.0752 44.6871 47.2147C45.8303 45.3542 46.4702 43.2682 46.5504 41.131C46.6307 38.9946 46.1485 36.8726 45.1468 34.944Z" fill="#00A8FF" stroke="#00A8FF" stroke-width="1.24786"/>
</g>
<defs>
<clipPath id="clip0_3_36">
<rect width="230" height="61" fill="white"/>
</clipPath>
</defs>
</svg>
