<svg width="252" height="66" viewBox="0 0 252 66" fill="none" xmlns="http://www.w3.org/2000/svg">
<path d="M74.379 25.1471H83.6066C87.6137 25.1471 90.0405 22.2897 90.0405 19.2627C90.0405 17.8481 89.2786 16.1224 88.5731 15.3869V15.3303C89.3915 14.5382 90.0405 13.0954 90.0405 11.596C90.0405 8.48401 87.6137 6.33394 83.6066 6.33394H74.379V25.1471ZM77.7653 13.8592V9.38931H83.6066C85.5255 9.38931 86.5978 10.2097 86.5978 11.596C86.5978 13.0671 85.6102 13.8592 83.8042 13.8592H77.7653ZM77.7653 22.0917V16.9711H83.8042C85.6102 16.9711 86.5978 17.7633 86.5978 19.2627C86.5978 20.6772 85.5255 22.0917 83.6066 22.0917H77.7653ZM95.007 5.48523V25.1471H98.1676V5.48523H95.007ZM109.88 25.4866C114.254 25.4866 117.555 22.6009 117.555 18.414C117.555 14.2553 114.254 11.3696 109.88 11.3696C105.506 11.3696 102.26 14.2553 102.26 18.414C102.26 22.6009 105.506 25.4866 109.88 25.4866ZM109.88 22.5726C107.255 22.5726 105.506 20.9035 105.506 18.414C105.506 15.9244 107.255 14.227 109.88 14.227C112.504 14.227 114.282 15.9244 114.282 18.414C114.282 20.9035 112.476 22.5726 109.88 22.5726ZM128.316 25.4866C130.546 25.4866 132.606 24.5813 134.299 23.0253L132.098 20.8752C130.941 22.0634 129.643 22.5726 128.345 22.5726C125.664 22.5726 123.914 20.8752 123.914 18.414C123.914 15.9244 125.692 14.227 128.316 14.227C129.727 14.227 131.054 14.8777 131.957 15.8678L134.214 13.746C132.577 12.1901 130.461 11.3696 128.316 11.3696C123.942 11.3696 120.669 14.2836 120.669 18.414C120.669 22.5726 123.914 25.4866 128.316 25.4866ZM143.604 19.687L148.175 25.1471H152.154L145.833 17.6784L152.211 11.6808H147.752L141.516 17.5652V5.48523H138.355V25.1471H141.516V21.6391L143.604 19.687ZM161.082 25.4866C163.311 25.4866 165.371 24.5813 167.064 23.0253L164.863 20.8752C163.706 22.0634 162.408 22.5726 161.11 22.5726C158.429 22.5726 156.68 20.8752 156.68 18.414C156.68 15.9244 158.458 14.227 161.082 14.227C162.493 14.227 163.819 14.8777 164.722 15.8678L166.98 13.746C165.343 12.1901 163.227 11.3696 161.082 11.3696C156.708 11.3696 153.435 14.2836 153.435 18.414C153.435 22.5726 156.68 25.4866 161.082 25.4866ZM178.373 11.3696C176.765 11.3696 175.325 11.596 174.281 12.3315V5.48523H171.121V25.1471H174.281V17.3106C174.281 15.302 176.172 14.227 178.006 14.227C180.01 14.227 181.251 15.3303 181.251 17.1975V25.1471H184.412V16.9711C184.412 13.5763 181.844 11.3696 178.373 11.3696ZM203.673 11.6808H200.512V12.5295C199.44 11.7657 197.944 11.3696 196.28 11.3696C192.103 11.3696 188.773 14.227 188.773 18.414C188.773 22.6009 192.131 25.4866 196.195 25.4866C198.001 25.4866 199.525 25.2319 200.625 24.4115V25.1471H203.673V11.6808ZM196.364 22.5726C193.768 22.5726 192.018 20.9035 192.018 18.414C192.018 15.9244 193.768 14.227 196.364 14.227C198.96 14.227 200.71 15.8961 200.71 18.414C200.71 20.9318 198.96 22.5726 196.364 22.5726ZM210.658 10.6341C211.73 10.6341 212.661 9.81366 212.661 8.76692C212.661 7.72017 211.73 6.92804 210.658 6.92804C209.529 6.92804 208.654 7.72017 208.654 8.76692C208.654 9.81366 209.529 10.6341 210.658 10.6341ZM212.21 25.1471V11.6808H209.049V25.1471H212.21ZM224.945 11.3696C223.337 11.3696 221.898 11.596 220.853 12.3315V11.6808H217.693V25.1471H220.853V17.3106C220.853 15.302 222.744 14.227 224.578 14.227C226.582 14.227 227.824 15.3303 227.824 17.1975V25.1471H230.984V16.9711C230.984 13.5763 228.416 11.3696 224.945 11.3696ZM81.716 59.2779C86.6543 59.2779 89.7583 56.9581 89.7583 53.5632C89.7583 49.1499 84.7636 48.471 82.0546 48.0466C78.3297 47.5374 77.2009 46.915 77.2009 45.5853C77.2009 43.9162 78.8376 42.8977 81.9981 42.8977C83.9452 42.8977 85.7513 43.3787 87.7548 44.482L89.843 42.0773C87.5573 40.8043 84.6507 39.7858 82.0546 39.7858C78.245 39.7858 73.73 41.1154 73.73 45.7551C73.73 48.5841 75.5078 50.1118 81.4338 51.102C81.5184 51.1303 81.6031 51.1303 81.6877 51.1585L81.9699 51.1868C84.0863 51.5263 86.2592 51.8941 86.2592 53.6198C86.2592 55.289 84.3685 56.166 81.7442 56.166C79.3456 56.166 76.8623 55.5153 74.9152 54.1856L72.9399 56.6186C74.6895 57.8351 78.245 59.2779 81.716 59.2779ZM101.233 59.2779C105.607 59.2779 108.909 56.3923 108.909 52.2053C108.909 48.0466 105.607 45.161 101.233 45.161C96.8593 45.161 93.6141 48.0466 93.6141 52.2053C93.6141 56.3923 96.8593 59.2779 101.233 59.2779ZM101.233 56.364C98.6089 56.364 96.8593 54.6949 96.8593 52.2053C96.8593 49.7157 98.6089 48.0183 101.233 48.0183C103.858 48.0183 105.635 49.7157 105.635 52.2053C105.635 54.6949 103.829 56.364 101.233 56.364ZM119.952 59.2779C122.181 59.2779 124.241 58.3726 125.934 56.8166L123.733 54.6666C122.576 55.8548 121.278 56.364 119.98 56.364C117.299 56.364 115.55 54.6666 115.55 52.2053C115.55 49.7157 117.327 48.0183 119.952 48.0183C121.363 48.0183 122.689 48.669 123.592 49.6592L125.85 47.5374C124.213 45.9814 122.096 45.161 119.952 45.161C115.578 45.161 112.304 48.0749 112.304 52.2053C112.304 56.364 115.55 59.2779 119.952 59.2779ZM132.139 44.4254C133.211 44.4254 134.142 43.605 134.142 42.5583C134.142 41.5115 133.211 40.7194 132.139 40.7194C131.01 40.7194 130.135 41.5115 130.135 42.5583C130.135 43.605 131.01 44.4254 132.139 44.4254ZM133.691 58.9384V45.4722H130.53V58.9384H133.691ZM152.641 51.3566C152.641 48.2163 150.327 45.161 145.699 45.161C141.297 45.161 138.249 48.0183 138.249 52.1487C138.249 56.4206 141.466 59.2779 145.897 59.2779C148.154 59.2779 150.355 58.3443 152.048 56.8166L150.045 54.6666C148.775 55.7982 147.336 56.4206 145.868 56.4206C143.696 56.4206 142.115 55.3172 141.607 53.4784H152.331C152.556 52.5731 152.641 51.7244 152.641 51.3566ZM145.671 47.99C147.816 47.99 149.085 49.1782 149.311 50.6776H141.636C142.115 48.9519 143.583 47.99 145.671 47.99ZM166.474 58.3726L165.148 55.9113C164.16 56.3357 163.511 56.364 162.89 56.364C161.451 56.364 160.746 55.7133 160.746 54.3554V48.2729H166.587V45.4722H160.746V41.653H157.585V45.4722H154.735V48.2729H157.585V54.3554C157.585 57.5522 159.476 59.2779 162.919 59.2779C164.16 59.2779 165.204 58.995 165.966 58.5989L166.474 58.3726ZM184.71 45.4722H181.183L177.063 54.7231L172.661 45.4722H169.133L175.426 58.4009L172.294 65.4452H175.539L184.71 45.4722ZM199.54 58.9384V40.1253H196.153V58.9384H199.54ZM209.329 58.9384V40.1253H205.943V58.9384H209.329ZM230.463 43.1806V40.1253H213.673V43.1806H220.36V58.9384H223.775V43.1806H230.463ZM244.828 50.6776C248.383 50.423 250.415 48.2446 250.415 45.4156C250.415 42.3036 247.988 40.1536 243.981 40.1536H234.754V58.9667H238.112L238.14 50.7059H240.821L246.888 58.9384H251.205L244.828 50.6776ZM238.14 43.1806H243.981C245.9 43.1806 246.972 44.0011 246.972 45.3873C246.972 46.7452 245.9 47.6505 243.981 47.6505H238.14V43.1806Z" fill="white"/>
<path d="M48.9982 37.4218L48.9974 37.4206C48.4436 36.3745 47.7546 35.3924 46.9453 34.4947C46.5439 34.0467 46.1112 33.6227 45.6491 33.2254C45.421 33.0245 45.1886 32.8349 44.9543 32.6481L44.8473 32.5628H44.8382C44.6317 32.4059 44.4197 32.2536 44.2104 32.1065L44.1089 32.0354H44.1002C42.9488 31.2579 41.686 30.6254 40.3475 30.155C40.3256 30.1468 40.3032 30.1399 40.2801 30.1344C40.0998 30.0684 39.9207 30.0114 39.751 29.9572L39.7412 29.954L39.7373 29.9529C39.5272 29.8881 39.3175 29.8283 39.1075 29.7734L19.58 24.2659L19.5279 24.2512H19.4738H19.4684H19.4068L13.0274 22.4522L13.0382 22.423L12.6293 22.3076L8.36251 21.1039V14.3911H34.5824C35.8294 14.391 37.0563 14.6661 38.1552 15.1905L38.3237 14.8357L38.1552 15.1905C39.254 15.7149 40.19 16.4716 40.8841 17.3913C41.5778 18.3108 42.0093 19.3658 42.1453 20.464C42.2809 21.5621 42.1171 22.6743 41.6668 23.7051L41.6338 23.7805V23.8627V23.8677V24.1651L41.9192 24.2458L49.1624 26.292L49.2145 26.3067H49.2686H49.2741H49.541L49.6386 26.0576C50.4275 24.0475 50.7144 21.9034 50.4789 19.7794C50.2437 17.6556 49.4916 15.6073 48.2794 13.7805L48.163 13.6053H48.1591C46.8951 11.7594 45.1886 10.1967 43.1674 9.03156C41.1851 7.88879 38.9511 7.15728 36.6253 6.88609V0.392923V0H36.2334H28.6548H28.2629V0.392923V6.76845H20.9917V0.392923V0H20.5998H13.0211H12.6292V0.392923V6.76845H0.391929H0V7.16137V26.4266V26.7242L0.28572 26.8048L7.86437 28.9438H7.86441L24.1205 33.5293L24.1206 33.5293L36.8193 37.1105L36.8231 37.113L36.8827 37.1293C37.0477 37.1743 37.2075 37.2224 37.3605 37.2775C37.3662 37.2801 37.372 37.2826 37.3781 37.2851C37.3922 37.2908 37.4068 37.2957 37.422 37.2999L37.4472 37.3091H37.4559L37.57 37.3411L37.5675 37.3482L37.9067 37.4963C39.461 38.1746 40.7054 39.3048 41.4441 40.6934C42.1825 42.0804 42.3754 43.6486 41.996 45.1437L42.3464 45.2333L41.996 45.1437C41.6158 46.6399 40.6822 47.9845 39.3363 48.9519C37.9903 49.92 36.314 50.4505 34.5824 50.4509H8.36251V35.7491V35.4513L8.07656 35.3708L0.497911 33.2367L0 33.0965V33.615V57.6806V58.0736H0.391929H12.6292V64.4393V64.8322H13.0211H20.5998H20.9917V64.4393V58.0736H28.2629V64.4393V64.8322H28.6548H36.2334H36.6253V64.4393V57.951C39.0259 57.6689 41.3281 56.8972 43.3548 55.6897C45.481 54.4233 47.2451 52.7137 48.4953 50.7004C49.746 48.687 50.446 46.4297 50.5338 44.117C50.6216 41.805 50.094 39.5088 48.9982 37.4218Z" fill="white"/>
</svg>
