<svg width="252" height="66" viewBox="0 0 252 66" fill="none" xmlns="http://www.w3.org/2000/svg">
<path d="M74.3791 25.147H83.6067C87.6138 25.147 90.0406 22.2896 90.0406 19.2625C90.0406 17.848 89.2787 16.1223 88.5732 15.3868V15.3302C89.3916 14.538 90.0406 13.0952 90.0406 11.5958C90.0406 8.48389 87.6138 6.33382 83.6067 6.33382H74.3791V25.147ZM77.7654 13.8591V9.38919H83.6067C85.5256 9.38919 86.5979 10.2096 86.5979 11.5958C86.5979 13.0669 85.6102 13.8591 83.8042 13.8591H77.7654ZM77.7654 22.0916V16.971H83.8042C85.6102 16.971 86.5979 17.7632 86.5979 19.2625C86.5979 20.6771 85.5256 22.0916 83.6067 22.0916H77.7654ZM95.0071 5.48511V25.147H98.1676V5.48511H95.0071ZM109.88 25.4864C114.254 25.4864 117.555 22.6008 117.555 18.4138C117.555 14.2551 114.254 11.3695 109.88 11.3695C105.506 11.3695 102.261 14.2551 102.261 18.4138C102.261 22.6008 105.506 25.4864 109.88 25.4864ZM109.88 22.5725C107.255 22.5725 105.506 20.9034 105.506 18.4138C105.506 15.9243 107.255 14.2268 109.88 14.2268C112.504 14.2268 114.282 15.9243 114.282 18.4138C114.282 20.9034 112.476 22.5725 109.88 22.5725ZM128.316 25.4864C130.546 25.4864 132.606 24.5811 134.299 23.0252L132.098 20.8751C130.941 22.0633 129.643 22.5725 128.345 22.5725C125.664 22.5725 123.914 20.8751 123.914 18.4138C123.914 15.9243 125.692 14.2268 128.316 14.2268C129.727 14.2268 131.054 14.8775 131.957 15.8677L134.214 13.7459C132.577 12.1899 130.461 11.3695 128.316 11.3695C123.942 11.3695 120.669 14.2834 120.669 18.4138C120.669 22.5725 123.914 25.4864 128.316 25.4864ZM143.604 19.6869L148.175 25.147H152.154L145.833 17.6783L152.211 11.6807H147.752L141.516 17.5651V5.48511H138.355V25.147H141.516V21.6389L143.604 19.6869ZM161.082 25.4864C163.311 25.4864 165.371 24.5811 167.064 23.0252L164.863 20.8751C163.706 22.0633 162.408 22.5725 161.11 22.5725C158.429 22.5725 156.68 20.8751 156.68 18.4138C156.68 15.9243 158.458 14.2268 161.082 14.2268C162.493 14.2268 163.819 14.8775 164.722 15.8677L166.98 13.7459C165.343 12.1899 163.227 11.3695 161.082 11.3695C156.708 11.3695 153.435 14.2834 153.435 18.4138C153.435 22.5725 156.68 25.4864 161.082 25.4864ZM178.373 11.3695C176.765 11.3695 175.326 11.5958 174.281 12.3314V5.48511H171.121V25.147H174.281V17.3105C174.281 15.3019 176.172 14.2268 178.006 14.2268C180.01 14.2268 181.251 15.3302 181.251 17.1973V25.147H184.412V16.971C184.412 13.5762 181.844 11.3695 178.373 11.3695ZM203.673 11.6807H200.512V12.5294C199.44 11.7656 197.945 11.3695 196.28 11.3695C192.103 11.3695 188.773 14.2268 188.773 18.4138C188.773 22.6008 192.131 25.4864 196.195 25.4864C198.001 25.4864 199.525 25.2318 200.625 24.4114V25.147H203.673V11.6807ZM196.364 22.5725C193.768 22.5725 192.019 20.9034 192.019 18.4138C192.019 15.9243 193.768 14.2268 196.364 14.2268C198.96 14.2268 200.71 15.896 200.71 18.4138C200.71 20.9317 198.96 22.5725 196.364 22.5725ZM210.658 10.634C211.73 10.634 212.661 9.81354 212.661 8.7668C212.661 7.72005 211.73 6.92792 210.658 6.92792C209.529 6.92792 208.654 7.72005 208.654 8.7668C208.654 9.81354 209.529 10.634 210.658 10.634ZM212.21 25.147V11.6807H209.049V25.147H212.21ZM224.945 11.3695C223.337 11.3695 221.898 11.5958 220.854 12.3314V11.6807H217.693V25.147H220.854V17.3105C220.854 15.3019 222.744 14.2268 224.578 14.2268C226.582 14.2268 227.824 15.3302 227.824 17.1973V25.147H230.984V16.971C230.984 13.5762 228.416 11.3695 224.945 11.3695ZM81.716 59.2778C86.6543 59.2778 89.7584 56.958 89.7584 53.5631C89.7584 49.1498 84.7637 48.4708 82.0546 48.0465C78.3297 47.5373 77.201 46.9149 77.201 45.5852C77.201 43.9161 78.8377 42.8976 81.9982 42.8976C83.9453 42.8976 85.7513 43.3786 87.7549 44.4819L89.8431 42.0772C87.5573 40.8041 84.6508 39.7857 82.0546 39.7857C78.2451 39.7857 73.7301 41.1153 73.7301 45.755C73.7301 48.584 75.5079 50.1117 81.4338 51.1018C81.5185 51.1301 81.6031 51.1301 81.6878 51.1584L81.97 51.1867C84.0864 51.5262 86.2593 51.894 86.2593 53.6197C86.2593 55.2888 84.3686 56.1658 81.7442 56.1658C79.3456 56.1658 76.8624 55.5152 74.9153 54.1855L72.9399 56.6185C74.6895 57.835 78.2451 59.2778 81.716 59.2778ZM101.233 59.2778C105.607 59.2778 108.909 56.3922 108.909 52.2052C108.909 48.0465 105.607 45.1609 101.233 45.1609C96.8594 45.1609 93.6142 48.0465 93.6142 52.2052C93.6142 56.3922 96.8594 59.2778 101.233 59.2778ZM101.233 56.3639C98.6089 56.3639 96.8594 54.6947 96.8594 52.2052C96.8594 49.7156 98.6089 48.0182 101.233 48.0182C103.858 48.0182 105.635 49.7156 105.635 52.2052C105.635 54.6947 103.829 56.3639 101.233 56.3639ZM119.952 59.2778C122.181 59.2778 124.241 58.3725 125.934 56.8165L123.733 54.6664C122.576 55.8546 121.278 56.3639 119.98 56.3639C117.299 56.3639 115.55 54.6664 115.55 52.2052C115.55 49.7156 117.327 48.0182 119.952 48.0182C121.363 48.0182 122.689 48.6689 123.592 49.659L125.85 47.5373C124.213 45.9813 122.096 45.1609 119.952 45.1609C115.578 45.1609 112.305 48.0748 112.305 52.2052C112.305 56.3639 115.55 59.2778 119.952 59.2778ZM132.139 44.4253C133.211 44.4253 134.142 43.6049 134.142 42.5581C134.142 41.5114 133.211 40.7193 132.139 40.7193C131.01 40.7193 130.135 41.5114 130.135 42.5581C130.135 43.6049 131.01 44.4253 132.139 44.4253ZM133.691 58.9383V45.472H130.53V58.9383H133.691ZM152.641 51.3565C152.641 48.2162 150.327 45.1609 145.699 45.1609C141.297 45.1609 138.249 48.0182 138.249 52.1486C138.249 56.4204 141.466 59.2778 145.897 59.2778C148.154 59.2778 150.355 58.3442 152.048 56.8165L150.045 54.6664C148.775 55.7981 147.336 56.4204 145.869 56.4204C143.696 56.4204 142.115 55.3171 141.607 53.4782H152.331C152.556 52.5729 152.641 51.7242 152.641 51.3565ZM145.671 47.9899C147.816 47.9899 149.085 49.1781 149.311 50.6775H141.636C142.115 48.9518 143.583 47.9899 145.671 47.9899ZM166.474 58.3725L165.148 55.9112C164.16 56.3356 163.511 56.3639 162.89 56.3639C161.451 56.3639 160.746 55.7132 160.746 54.3552V48.2728H166.587V45.472H160.746V41.6528H157.585V45.472H154.735V48.2728H157.585V54.3552C157.585 57.5521 159.476 59.2778 162.919 59.2778C164.16 59.2778 165.204 58.9949 165.966 58.5988L166.474 58.3725ZM184.71 45.472H181.183L177.063 54.723L172.661 45.472H169.133L175.426 58.4008L172.294 65.4451H175.539L184.71 45.472ZM199.54 58.9383V40.1252H196.153V58.9383H199.54ZM209.329 58.9383V40.1252H205.943V58.9383H209.329ZM230.463 43.1805V40.1252H213.673V43.1805H220.36V58.9383H223.775V43.1805H230.463ZM244.828 50.6775C248.383 50.4229 250.415 48.2445 250.415 45.4155C250.415 42.3035 247.988 40.1535 243.981 40.1535H234.754V58.9666H238.112L238.14 50.7058H240.821L246.888 58.9383H251.205L244.828 50.6775ZM238.14 43.1805H243.981C245.9 43.1805 246.972 44.0009 246.972 45.3872C246.972 46.7451 245.9 47.6504 243.981 47.6504H238.14V43.1805Z" fill="black"/>
<path d="M48.9982 37.4218L48.9974 37.4206C48.4436 36.3745 47.7546 35.3924 46.9453 34.4947C46.5439 34.0467 46.1112 33.6227 45.6491 33.2254C45.421 33.0245 45.1886 32.8349 44.9543 32.6481L44.8473 32.5628H44.8382C44.6317 32.4059 44.4197 32.2536 44.2104 32.1065L44.1089 32.0354H44.1002C42.9488 31.2579 41.686 30.6254 40.3475 30.155C40.3256 30.1468 40.3032 30.1399 40.2801 30.1344C40.0998 30.0684 39.9207 30.0114 39.751 29.9572L39.7412 29.954L39.7373 29.9529C39.5272 29.8881 39.3175 29.8283 39.1075 29.7734L19.58 24.2659L19.5279 24.2512H19.4738H19.4684H19.4068L13.0274 22.4522L13.0382 22.423L12.6293 22.3076L8.36251 21.1039V14.3911H34.5824C35.8294 14.391 37.0563 14.6661 38.1552 15.1905L38.3237 14.8357L38.1552 15.1905C39.254 15.7149 40.19 16.4716 40.8841 17.3913C41.5778 18.3108 42.0093 19.3658 42.1453 20.464C42.2809 21.5621 42.1171 22.6743 41.6668 23.7051L41.6338 23.7805V23.8627V23.8677V24.1651L41.9192 24.2458L49.1624 26.292L49.2145 26.3067H49.2686H49.2741H49.541L49.6386 26.0576C50.4275 24.0475 50.7144 21.9034 50.4789 19.7794C50.2437 17.6556 49.4916 15.6073 48.2794 13.7805L48.163 13.6053H48.1591C46.8951 11.7594 45.1886 10.1967 43.1674 9.03156C41.1851 7.88879 38.9511 7.15728 36.6253 6.88609V0.392923V0H36.2334H28.6548H28.2629V0.392923V6.76845H20.9917V0.392923V0H20.5998H13.0211H12.6292V0.392923V6.76845H0.391929H0V7.16137V26.4266V26.7242L0.28572 26.8048L7.86437 28.9438H7.86441L24.1205 33.5293L24.1206 33.5293L36.8193 37.1105L36.8231 37.113L36.8827 37.1293C37.0477 37.1743 37.2075 37.2224 37.3605 37.2775C37.3662 37.2801 37.372 37.2826 37.3781 37.2851C37.3922 37.2908 37.4068 37.2957 37.422 37.2999L37.4472 37.3091H37.4559L37.57 37.3411L37.5675 37.3482L37.9067 37.4963C39.461 38.1746 40.7054 39.3048 41.4441 40.6934C42.1825 42.0804 42.3754 43.6486 41.996 45.1437L42.3464 45.2333L41.996 45.1437C41.6158 46.6399 40.6822 47.9845 39.3363 48.9519C37.9903 49.92 36.314 50.4505 34.5824 50.4509H8.36251V35.7491V35.4513L8.07656 35.3708L0.497911 33.2367L0 33.0965V33.615V57.6806V58.0736H0.391929H12.6292V64.4393V64.8322H13.0211H20.5998H20.9917V64.4393V58.0736H28.2629V64.4393V64.8322H28.6548H36.2334H36.6253V64.4393V57.951C39.0259 57.6689 41.3281 56.8972 43.3548 55.6897C45.481 54.4233 47.2451 52.7137 48.4953 50.7004C49.746 48.687 50.446 46.4297 50.5338 44.117C50.6216 41.805 50.094 39.5088 48.9982 37.4218Z" fill="black"/>
</svg>
